<mxfile host="app.diagrams.net" modified="2024-06-18T06:13:24.688Z" agent="Mozilla/5.0 (Macintosh; Intel Mac OS X 10_15_7) AppleWebKit/537.36 (KHTML, like Gecko) Chrome/125.0.0.0 Safari/537.36" version="24.5.5" etag="QJv39ClnoP7LEkVaQyZB" type="github">
  <diagram name="第 1 页" id="YkLvHOuxInYhM2U2tg4u">
    <mxGraphModel>
      <root>
        <mxCell id="0" />
        <mxCell id="1" parent="0" />
      </root>
    </mxGraphModel>
  </diagram>
</mxfile>
